<?xml version="1.0" encoding="utf-8"?>
<!-- Generator: Adobe Illustrator 23.0.0, SVG Export Plug-In . SVG Version: 6.00 Build 0)  -->
<svg version="1.1" id="Layer_1" xmlns="http://www.w3.org/2000/svg" xmlns:xlink="http://www.w3.org/1999/xlink" x="0px" y="0px"
	 viewBox="0 0 512 512" style="enable-background:new 0 0 512 512;" xml:space="preserve">
<style type="text/css">
	.st0{fill:#4B9878;}
</style>
<rect x="61.67" y="308.84" transform="matrix(0.985 -0.1723 0.1723 0.985 -63.2328 20.7352)" class="st0" width="52.31" height="131.51"/>
<path class="st0" d="M145.34,407.94c8.96-7.35,20.44-10.93,31.99-9.97L283.61,406h0.34c20.17-0.13,39.79-6.59,56.1-18.47
	L461.27,268.7c-9.7-6.86-22.76-6.53-32.11,0.81l-0.14,0.11l-60.34,45.12c1.51,3.58,2.61,7.32,3.28,11.15
	c0.67,3.81-1.88,7.43-5.69,8.1l-97.91,17.13c-0.4,0.07-0.81,0.1-1.21,0.1c-3.87,0.01-7.01-3.11-7.02-6.98
	c-0.01-3.42,2.45-6.35,5.82-6.92l90.38-15.81c-6.43-17.09-24.1-27.19-42.09-24.07l-59.56,10.42c-11.72,2.03-23.74,1.41-35.19-1.83
	l-6.66-1.89c-32.9-9.44-68.34-0.1-92.3,24.35l15.25,87.2L145.34,407.94z M277.04,255.39c51.71,0,93.63-41.92,93.63-93.63
	c0-51.71-41.92-93.63-93.63-93.63c-51.71,0-93.63,41.92-93.63,93.63v0C183.46,213.44,225.35,255.33,277.04,255.39z M264,111.4
	c0-3.87,3.13-7,7-7s7,3.13,7,7V164h38.2c3.87,0,7,3.13,7,7s-3.13,7-7,7h-44.76c-3.87,0-7.45-3.99-7.45-7.85V111.4z"/>
</svg>
