<?xml version="1.0" encoding="utf-8"?>
<!-- Generator: Adobe Illustrator 23.0.0, SVG Export Plug-In . SVG Version: 6.00 Build 0)  -->
<svg version="1.1" id="Layer_1" focusable="false" xmlns="http://www.w3.org/2000/svg" xmlns:xlink="http://www.w3.org/1999/xlink"
	 x="0px" y="0px" viewBox="0 0 640 512" style="enable-background:new 0 0 640 512;" xml:space="preserve">
<style type="text/css">
	.st0{fill:#4B9878;}
</style>
<path class="st0" d="M208,352c-2.39,0-4.78,0.35-7.06,1.09C187.98,357.3,174.35,360,160,360s-27.98-2.7-40.95-6.91
	c-2.28-0.74-4.66-1.09-7.05-1.09C49.94,352-0.33,402.48,0,464.62C0.14,490.88,21.73,512,48,512h224c26.27,0,47.86-21.12,48-47.38
	C320.33,402.48,270.06,352,208,352z M160,320c53.02,0,96-42.98,96-96s-42.98-96-96-96s-96,42.98-96,96S106.98,320,160,320z M592,0
	H208c-26.47,0-48,22.25-48,49.59V96c23.42,0,45.1,6.78,64,17.8V64h352v288h-64v-64H384v64h-76.24c19.1,16.69,33.12,38.73,39.69,64
	H592c26.47,0,48-22.25,48-49.59V49.59C640,22.25,618.47,0,592,0z"/>
</svg>
